<?xml version="1.0" ?><svg id="Layer_1" style="enable-background:new 0 0 52 52;" version="1.1" viewBox="0 0 52 52" xml:space="preserve" xmlns="http://www.w3.org/2000/svg" xmlns:xlink="http://www.w3.org/1999/xlink"><style type="text/css">
	.st0{fill:#fff;}
</style><g><g><path class="st0" d="M42.0991096,2.8013961c-0.0802078,13.3486013-0.1604156,26.6972027-0.2406235,40.0458031    c0.6401634-0.2651634,1.2803307-0.5303307,1.9204941-0.7954941c-5.4012718-5.2590218-9.1040382-9.2159424-16.7883186-10.3812485    c-3.6198463-0.5489426-7.3064442-0.8021908-10.9615402-0.9749622c-2.7699213-0.1309299-6.2502327,0.4658165-8.536603-1.4283447    c-1.7524142-1.4517994-3.4204698-4.2974415-3.605494-6.5182171c-0.8716624-10.4622231,17.1229954-6.2353191,23.352993-8.4089289    c3.0346107-1.0587578,6.3381653-2.527339,8.9795151-4.3577347c2.7480545-1.9043398,4.3687744-4.6849942,7.3064461-6.5656281    c1.2157974-0.778327,0.0886993-2.7265906-1.1356201-1.9428091c-3.2399902,2.0741727-5.3881264,5.1905336-8.5207977,7.260726    c-5.0174389,3.3157196-10.1110573,4.2424459-15.9836388,4.3499041    c-5.1103973,0.0935125-15.8571072-0.1456766-16.4542122,6.8689804    c-0.4973965,5.8432922,3.3859262,12.0080566,9.2991705,12.8067398c5.7112713,0.7714043,11.5130749,0.2518387,17.2335491,1.326561    c6.2184639,1.1682816,9.8801727,5.3269539,14.2235641,9.555954c0.6976624,0.679287,1.9145927,0.1864128,1.9204941-0.7954979    c0.0802078-13.3486004,0.1604156-26.6972008,0.2406235-40.0458031    C44.3578072,1.3533059,42.1078186,1.3516591,42.0991096,2.8013961L42.0991096,2.8013961z"/></g><g><path class="st0" d="M16.8040619,14.3011532c0,5.6111107,0,11.2222214,0,16.8333321c0,1.4477673,2.25,1.4501667,2.25,0    c0-5.6111107,0-11.2222214,0-16.8333321C19.0540619,12.853385,16.8040619,12.8509874,16.8040619,14.3011532L16.8040619,14.3011532    z"/></g><g><path class="st0" d="M43.5434151,16.9929714c2.3506126,0.4723434,4.536747,3.0452747,4.8990326,5.3081551    c0.4507599,2.8155384-1.2417946,5.8491192-4.3384666,5.9622536c-1.4435616,0.0527401-1.4505196,2.3029938,0,2.25    c9.0989227-0.3324242,8.2308807-14.0436344,0.037571-15.6900368    C42.7276688,14.5392313,42.1226921,16.7074852,43.5434151,16.9929714L43.5434151,16.9929714z"/></g><g><path class="st0" d="M12.4005117,32.2176552c0.0791845,2.8362617,0.2441187,5.6615868,0.5598793,8.4821739    c0.0964565,0.8616142,0.3066063,1.7381058,0.3238497,2.600769c0.556427,1.3181229,0.2057419,2.4122429-1.0520554,3.2823601    c-0.8757343,2.3368378-1.6557388,2.3384247-2.3400126,0.0047722C9.160861,44.478611,9.5387573,41.2341461,9.3908873,38.994194    c-0.2005138-3.0374146-0.4010286-6.0748291-0.6015434-9.1122456c-0.0948887-1.4373856-2.3455882-1.4479885-2.2499995,0    c0.3652172,5.5323544,0.3952093,11.208292,1.102829,16.7057819c0.2981677,2.3164597,1.1871085,3.8049507,3.6808877,4.0822258    c2.319561,0.2579041,4.4631796-0.771244,4.7372684-3.2258148c0.2122211-1.9005356-0.5379524-4.1066475-0.7639332-5.9760475    c-0.3715343-3.0734825-0.559514-6.1568146-0.6458845-9.2504387    C14.6101713,30.7727528,12.3600073,30.7668705,12.4005117,32.2176552L12.4005117,32.2176552z"/></g></g></svg>
